<?xml version="1.0" encoding="UTF-8" standalone="no"?>
<!-- Created with Inkscape (http://www.inkscape.org/) -->

<svg
   xmlns:dc="http://purl.org/dc/elements/1.1/"
   xmlns:cc="http://creativecommons.org/ns#"
   xmlns:rdf="http://www.w3.org/1999/02/22-rdf-syntax-ns#"
   xmlns:svg="http://www.w3.org/2000/svg"
   xmlns="http://www.w3.org/2000/svg"
   xmlns:sodipodi="http://sodipodi.sourceforge.net/DTD/sodipodi-0.dtd"
   xmlns:inkscape="http://www.inkscape.org/namespaces/inkscape"
   width="1000"
   height="1652.36"
   id="svg2"
   version="1.1"
   inkscape:version="0.48.5 r10040"
   sodipodi:docname="alien.svg">
  <defs
     id="defs4" />
  <sodipodi:namedview
     id="base"
     pagecolor="#ffffff"
     bordercolor="#666666"
     borderopacity="1.0"
     inkscape:pageopacity="0.0"
     inkscape:pageshadow="2"
     inkscape:zoom="0.35355339"
     inkscape:cx="479.36434"
     inkscape:cy="678.40403"
     inkscape:document-units="px"
     inkscape:current-layer="layer1"
     showgrid="true"
     inkscape:window-width="1920"
     inkscape:window-height="1017"
     inkscape:window-x="1912"
     inkscape:window-y="-8"
     inkscape:window-maximized="1"
     showborder="false">
    <inkscape:grid
       type="xygrid"
       id="grid3108"
       empspacing="5"
       visible="true"
       enabled="true"
       snapvisiblegridlinesonly="true" />
  </sodipodi:namedview>
  <metadata
     id="metadata7">
    <rdf:RDF>
      <cc:Work
         rdf:about="">
        <dc:format>image/svg+xml</dc:format>
        <dc:type
           rdf:resource="http://purl.org/dc/dcmitype/StillImage" />
      </cc:Work>
    </rdf:RDF>
  </metadata>
  <g
     inkscape:label="Layer 1"
     inkscape:groupmode="layer"
     id="layer1"
     transform="translate(0,599.99783)">
    <path
       sodipodi:type="arc"
       style="fill:#008000"
       id="path3031"
       sodipodi:cx="411.42856"
       sodipodi:cy="458.07648"
       sodipodi:rx="260"
       sodipodi:ry="282.85715"
       d="m 671.42856,458.07648 a 260,282.85715 0 1 1 -520,0 260,282.85715 0 1 1 520,0 z"
       transform="translate(-24.285712,-475.71432)" />
    <path
       sodipodi:type="arc"
       style="fill:#008000"
       id="path3033"
       sodipodi:cx="138.57143"
       sodipodi:cy="166.6479"
       sodipodi:rx="101.42857"
       sodipodi:ry="105.71429"
       d="m 240,166.6479 a 101.42857,105.71429 0 1 1 -202.857147,0 101.42857,105.71429 0 1 1 202.857147,0 z"
       transform="translate(61.428574,-198.57146)" />
    <path
       sodipodi:type="arc"
       style="fill:#ffffff"
       id="path3037"
       sodipodi:cx="171.42857"
       sodipodi:cy="189.50504"
       sodipodi:rx="88.571426"
       sodipodi:ry="91.428574"
       d="m 260,189.50504 a 88.571426,91.428574 0 1 1 -177.142853,0 88.571426,91.428574 0 1 1 177.142853,0 z"
       transform="translate(30.000003,-221.42861)" />
    <path
       sodipodi:type="arc"
       style="fill:#000000"
       id="path3041"
       sodipodi:cx="145.71428"
       sodipodi:cy="170.93361"
       sodipodi:rx="54.285713"
       sodipodi:ry="52.857143"
       d="m 199.99999,170.93361 a 54.285713,52.857143 0 1 1 -108.571424,0 54.285713,52.857143 0 1 1 108.571424,0 z"
       transform="translate(55.714289,-204.28575)" />
    <path
       sodipodi:type="arc"
       style="fill:#ffffff"
       id="path3043"
       sodipodi:cx="57.142857"
       sodipodi:cy="350.93362"
       sodipodi:rx="14.285714"
       sodipodi:ry="15.714286"
       d="m 71.428571,350.93362 a 14.285714,15.714286 0 1 1 -28.571429,0 14.285714,15.714286 0 1 1 28.571429,0 z"
       transform="translate(147.14286,-392.85718)" />
    <path
       sodipodi:type="arc"
       style="fill:#008000"
       id="path3033-7"
       sodipodi:cx="138.57143"
       sodipodi:cy="166.6479"
       sodipodi:rx="101.42857"
       sodipodi:ry="105.71429"
       d="m 240,166.6479 a 101.42857,105.71429 0 1 1 -202.857147,0 101.42857,105.71429 0 1 1 202.857147,0 z"
       transform="translate(440,-201.42861)" />
    <path
       sodipodi:type="arc"
       style="fill:#ffffff"
       id="path3037-4"
       sodipodi:cx="171.42857"
       sodipodi:cy="189.50504"
       sodipodi:rx="88.571426"
       sodipodi:ry="91.428574"
       d="m 260,189.50504 a 88.571426,91.428574 0 1 1 -177.142853,0 88.571426,91.428574 0 1 1 177.142853,0 z"
       transform="translate(408.57143,-224.28575)" />
    <path
       sodipodi:type="arc"
       style="fill:#000000"
       id="path3041-0"
       sodipodi:cx="145.71428"
       sodipodi:cy="170.93361"
       sodipodi:rx="54.285713"
       sodipodi:ry="52.857143"
       d="m 199.99999,170.93361 a 54.285713,52.857143 0 1 1 -108.571424,0 54.285713,52.857143 0 1 1 108.571424,0 z"
       transform="translate(434.28572,-207.1429)" />
    <path
       sodipodi:type="arc"
       style="fill:#ffffff"
       id="path3043-9"
       sodipodi:cx="57.142857"
       sodipodi:cy="350.93362"
       sodipodi:rx="14.285714"
       sodipodi:ry="15.714286"
       d="m 71.428571,350.93362 a 14.285714,15.714286 0 1 1 -28.571429,0 14.285714,15.714286 0 1 1 28.571429,0 z"
       transform="translate(525.71429,-395.71432)" />
    <path
       sodipodi:type="arc"
       style="fill:#00ff00"
       id="path3085"
       sodipodi:cx="405.71429"
       sodipodi:cy="666.64789"
       sodipodi:rx="120"
       sodipodi:ry="37.142857"
       d="m 525.71429,666.64789 a 120,37.142857 0 1 1 -240,0 120,37.142857 0 1 1 240,0 z"
       transform="translate(1.4285736,-475.71432)" />
    <path
       sodipodi:type="arc"
       style="fill:#ffffff"
       id="path3093"
       sodipodi:cx="407.14285"
       sodipodi:cy="669.50507"
       sodipodi:rx="87.14286"
       sodipodi:ry="20"
       d="m 494.28571,669.50507 a 87.14286,20 0 1 1 -174.28572,0 87.14286,20 0 1 1 174.28572,0 z"
       transform="translate(1.4285736,-475.71432)" />
    <path
       sodipodi:type="arc"
       style="fill:#ffffff"
       id="path3095"
       sodipodi:cx="358.57144"
       sodipodi:cy="530.93359"
       sodipodi:rx="12.857142"
       sodipodi:ry="7.1428571"
       d="m 371.42858,530.93359 a 12.857142,7.1428571 0 1 1 -25.71428,0 12.857142,7.1428571 0 1 1 25.71428,0 z"
       transform="translate(1.4285736,-475.71432)" />
    <path
       sodipodi:type="arc"
       style="fill:#ffffff"
       id="path3097"
       sodipodi:cx="421.42856"
       sodipodi:cy="528.07648"
       sodipodi:rx="12.857142"
       sodipodi:ry="7.1428571"
       d="m 434.2857,528.07648 a 12.857142,7.1428571 0 1 1 -25.71428,0 12.857142,7.1428571 0 1 1 25.71428,0 z"
       transform="translate(-12.85714,-472.85718)" />
    <path
       style="fill:#008000"
       d="m 338.57142,253.7907 94.28572,0 -17.14286,51.42857 -48.57143,2.85714 z"
       id="rect3099"
       inkscape:connector-curvature="0"
       sodipodi:nodetypes="ccccc" />
    <path
       transform="translate(-20,-639.99783)"
       style="fill:#008000"
       d="m 620,1252.36 c 0,187.7768 -94.0202,140 -210,140 -115.9798,0 -210,47.7768 -210,-140 0,-187.7768 94.0202,-340.00001 210,-340.00001 115.9798,0 210,152.22321 210,340.00001 z"
       id="path3127"
       inkscape:connector-curvature="0"
       sodipodi:nodetypes="sssss" />
    <path
       style="fill:#008000"
       d="m 188.47053,-255.30855 c 18.00476,43.3542 16.06144,85.36831 -4.34054,93.84114 -20.40197,8.47284 3.87478,-42.81623 -14.12999,-86.17043 -18.00476,-43.3542 -71.47301,-62.35618 -51.07103,-70.82901 20.40197,-8.47283 51.53679,19.8041 69.54156,63.1583 z"
       id="path3132"
       inkscape:connector-curvature="0"
       sodipodi:nodetypes="sssss" />
    <path
       sodipodi:type="arc"
       style="fill:#008000"
       id="path3135"
       sodipodi:cx="120"
       sodipodi:cy="287.35999"
       sodipodi:rx="30"
       sodipodi:ry="25"
       d="m 150,287.35999 a 30,25 0 1 1 -60,0 30,25 0 1 1 60,0 z"
       transform="translate(0,-599.99783)" />
    <path
       sodipodi:type="arc"
       style="fill:#00ff00"
       id="path3139"
       sodipodi:cx="130"
       sodipodi:cy="297.35999"
       sodipodi:rx="20"
       sodipodi:ry="15"
       d="m 150,297.35999 a 20,15 0 1 1 -40,0 20,15 0 1 1 40,0 z"
       transform="translate(-10,-609.99783)" />
    <path
       style="fill:#008000"
       d="m 590,-247.63784 c -11.48132,36.91571 26.81483,81.64722 3.08331,74.26637 -23.73153,-7.38085 -33.66229,-43.29031 -22.18097,-80.20601 11.48132,-36.91572 40.02697,-60.85845 63.7585,-53.4776 23.73152,7.38084 -33.17952,22.50153 -44.66084,59.41724 z"
       id="path3141"
       inkscape:connector-curvature="0"
       sodipodi:nodetypes="sssss" />
    <path
       transform="translate(520,-599.99783)"
       sodipodi:type="arc"
       style="fill:#008000"
       id="path3135-4"
       sodipodi:cx="120"
       sodipodi:cy="287.35999"
       sodipodi:rx="30"
       sodipodi:ry="25"
       d="m 150,287.35999 a 30,25 0 1 1 -60,0 30,25 0 1 1 60,0 z" />
    <path
       sodipodi:type="arc"
       style="fill:#00ff00"
       id="path3139-8"
       sodipodi:cx="130"
       sodipodi:cy="297.35999"
       sodipodi:rx="20"
       sodipodi:ry="15"
       d="m 150,297.35999 a 20,15 0 1 1 -40,0 20,15 0 1 1 40,0 z"
       transform="translate(510,-609.99783)" />
    <path
       style="fill:#008000"
       d="m 240,752.36216 120,0 -40,200 -50,0 z"
       id="rect3167"
       inkscape:connector-curvature="0"
       sodipodi:nodetypes="ccccc" />
    <path
       style="fill:#008000"
       d="m 420,752.36216 120,0 -40,200 -50,0 z"
       id="rect3167-8"
       inkscape:connector-curvature="0"
       sodipodi:nodetypes="ccccc" />
    <path
       transform="translate(0,-599.99783)"
       style="fill:#008000"
       d="m 270,1552.36 50,0 0,20 -180,0 z"
       id="rect3188"
       inkscape:connector-curvature="0"
       sodipodi:nodetypes="ccccc" />
    <path
       style="fill:#008000"
       d="m 450,952.36216 50,0 0,20.00004 -180,0 z"
       id="rect3188-2"
       inkscape:connector-curvature="0"
       sodipodi:nodetypes="ccccc" />
    <path
       style="fill:#008000"
       d="m 291.18672,317.45453 c 16.96975,14.14416 -47.51248,25.76662 -130.60939,125.4639 C 77.480416,542.61571 7.235935,692.63447 -9.733815,678.49031 -26.703575,664.34615 26.903085,572.05944 110,472.36216 193.09691,372.66489 274.21695,303.31037 291.18672,317.45453 z"
       id="path3213"
       inkscape:connector-curvature="0"
       sodipodi:nodetypes="sssss" />
    <path
       style="fill:#008000"
       d="M 489.39063,316.89826 C 472.42083,331.04242 536.90309,342.66488 620,442.36216 703.09691,542.05944 773.34138,692.0782 790.31118,677.93404 807.28088,663.78988 753.67428,571.50317 670.57733,471.80589 587.48042,372.10862 506.36043,302.7541 489.39063,316.89826 z"
       id="path3213-4"
       inkscape:connector-curvature="0"
       sodipodi:nodetypes="sssss" />
  </g>
</svg>
