<?xml version="1.0" encoding="UTF-8" standalone="no"?>
<!-- Created with Inkscape (http://www.inkscape.org/) -->

<svg
   xmlns:dc="http://purl.org/dc/elements/1.1/"
   xmlns:cc="http://creativecommons.org/ns#"
   xmlns:rdf="http://www.w3.org/1999/02/22-rdf-syntax-ns#"
   xmlns:svg="http://www.w3.org/2000/svg"
   xmlns="http://www.w3.org/2000/svg"
   xmlns:sodipodi="http://sodipodi.sourceforge.net/DTD/sodipodi-0.dtd"
   xmlns:inkscape="http://www.inkscape.org/namespaces/inkscape"
   width="60"
   height="85"
   id="svg2"
   version="1.1"
   inkscape:version="0.48.5 r10040"
   sodipodi:docname="alienFscaled.svg">
  <defs
     id="defs4" />
  <sodipodi:namedview
     id="base"
     pagecolor="#ffffff"
     bordercolor="#666666"
     borderopacity="1.0"
     inkscape:pageopacity="0.0"
     inkscape:pageshadow="2"
     inkscape:zoom="8.6212248"
     inkscape:cx="24.820721"
     inkscape:cy="44.808865"
     inkscape:document-units="px"
     inkscape:current-layer="layer1"
     showgrid="true"
     inkscape:window-width="1920"
     inkscape:window-height="1017"
     inkscape:window-x="-8"
     inkscape:window-y="-8"
     inkscape:window-maximized="1"
     showborder="true"
     fit-margin-top="0"
     fit-margin-left="0"
     fit-margin-right="0"
     fit-margin-bottom="0"
     showguides="true"
     inkscape:guide-bbox="true"
     inkscape:snap-global="false">
    <inkscape:grid
       type="xygrid"
       id="grid3108"
       empspacing="5"
       visible="true"
       enabled="true"
       snapvisiblegridlinesonly="true"
       originx="-365.09129px"
       originy="-694.06242px" />
  </sodipodi:namedview>
  <metadata
     id="metadata7">
    <rdf:RDF>
      <cc:Work
         rdf:about="">
        <dc:format>image/svg+xml</dc:format>
        <dc:type
           rdf:resource="http://purl.org/dc/dcmitype/StillImage" />
        <dc:title></dc:title>
      </cc:Work>
    </rdf:RDF>
  </metadata>
  <g
     inkscape:label="Layer 1"
     inkscape:groupmode="layer"
     id="layer1"
     transform="translate(-365.09129,-273.29968)">
    <path
       sodipodi:type="arc"
       style="fill:#008000"
       id="path3031"
       sodipodi:cx="411.42856"
       sodipodi:cy="458.07648"
       sodipodi:rx="260"
       sodipodi:ry="282.85715"
       d="m 671.42856,458.07648 a 260,282.85715 0 1 1 -520,0 260,282.85715 0 1 1 520,0 z"
       transform="matrix(0.0625,0,0,0.0625,369.28298,266.78904)" />
    <path
       sodipodi:type="arc"
       style="fill:#008000"
       id="path3033"
       sodipodi:cx="138.57143"
       sodipodi:cy="166.6479"
       sodipodi:rx="101.42857"
       sodipodi:ry="105.71429"
       d="m 240,166.6479 a 101.42857,105.71429 0 1 1 -202.857147,0 101.42857,105.71429 0 1 1 202.857147,0 z"
       transform="matrix(0.0625,0,0,0.0625,374.64012,284.11047)" />
    <path
       sodipodi:type="arc"
       style="fill:#ffffff"
       id="path3037"
       sodipodi:cx="171.42857"
       sodipodi:cy="189.50504"
       sodipodi:rx="88.571426"
       sodipodi:ry="91.428574"
       d="m 260,189.50504 a 88.571426,91.428574 0 1 1 -177.142853,0 88.571426,91.428574 0 1 1 177.142853,0 z"
       transform="matrix(0.0625,0,0,0.0625,372.67583,282.6819)" />
    <path
       sodipodi:type="arc"
       style="fill:#008000"
       id="path3033-7"
       sodipodi:cx="138.57143"
       sodipodi:cy="166.6479"
       sodipodi:rx="101.42857"
       sodipodi:ry="105.71429"
       d="m 240,166.6479 a 101.42857,105.71429 0 1 1 -202.857147,0 101.42857,105.71429 0 1 1 202.857147,0 z"
       transform="matrix(0.0625,0,0,0.0625,398.30083,283.9319)" />
    <path
       sodipodi:type="arc"
       style="fill:#ffffff"
       id="path3037-4"
       sodipodi:cx="171.42857"
       sodipodi:cy="189.50504"
       sodipodi:rx="88.571426"
       sodipodi:ry="91.428574"
       d="m 260,189.50504 a 88.571426,91.428574 0 1 1 -177.142853,0 88.571426,91.428574 0 1 1 177.142853,0 z"
       transform="matrix(0.0625,0,0,0.0625,396.33655,282.50333)" />
    <path
       sodipodi:type="arc"
       style="fill:#00ff00"
       id="path3085"
       sodipodi:cx="405.71429"
       sodipodi:cy="666.64789"
       sodipodi:rx="120"
       sodipodi:ry="37.142857"
       d="m 525.71429,666.64789 a 120,37.142857 0 1 1 -240,0 120,37.142857 0 1 1 240,0 z"
       transform="matrix(0.0625,0,0,0.0625,370.89012,266.78904)" />
    <path
       sodipodi:type="arc"
       style="fill:#ffffff"
       id="path3093"
       sodipodi:cx="407.14285"
       sodipodi:cy="669.50507"
       sodipodi:rx="87.14286"
       sodipodi:ry="20"
       d="m 494.28571,669.50507 a 87.14286,20 0 1 1 -174.28572,0 87.14286,20 0 1 1 174.28572,0 z"
       transform="matrix(0.0625,0,0,0.0625,370.89012,266.78904)" />
    <path
       sodipodi:type="arc"
       style="fill:#ffffff"
       id="path3095"
       sodipodi:cx="358.57144"
       sodipodi:cy="530.93359"
       sodipodi:rx="12.857142"
       sodipodi:ry="7.1428571"
       d="m 371.42858,530.93359 a 12.857142,7.1428571 0 1 1 -25.71428,0 12.857142,7.1428571 0 1 1 25.71428,0 z"
       transform="matrix(0.0625,0,0,0.0625,370.89012,266.78904)" />
    <path
       sodipodi:type="arc"
       style="fill:#ffffff"
       id="path3097"
       sodipodi:cx="421.42856"
       sodipodi:cy="528.07648"
       sodipodi:rx="12.857142"
       sodipodi:ry="7.1428571"
       d="m 434.2857,528.07648 a 12.857142,7.1428571 0 1 1 -25.71428,0 12.857142,7.1428571 0 1 1 25.71428,0 z"
       transform="matrix(0.0625,0,0,0.0625,369.99726,266.96762)" />
    <path
       style="fill:#008000"
       d="m 391.96155,312.38311 5.89285,0 -1.07142,3.21428 -3.03572,0.17857 z"
       id="rect3099"
       inkscape:connector-curvature="0"
       sodipodi:nodetypes="ccccc" />
    <path
       style="fill:#008000"
       d="m 408.30083,334.79382 c 0,11.73605 -5.87626,8.75 -13.125,8.75 -7.24873,0 -13.125,2.98605 -13.125,-8.75 0,-11.73605 5.87627,-21.25 13.125,-21.25 7.24874,0 13.125,9.51395 13.125,21.25 z"
       id="path3127"
       inkscape:connector-curvature="0"
       sodipodi:nodetypes="sssss" />
    <path
       style="fill:#008000"
       d="m 382.58024,280.56441 c 1.1253,2.70963 1.00384,5.33551 -0.27128,5.86507 -1.27513,0.52955 0.24217,-2.67602 -0.88313,-5.38566 -1.12529,-2.70963 -4.46706,-3.89726 -3.19194,-4.42681 1.27513,-0.52955 3.22105,1.23776 4.34635,3.9474 z"
       id="path3132"
       inkscape:connector-curvature="0"
       sodipodi:nodetypes="sssss" />
    <path
       sodipodi:type="arc"
       style="fill:#008000"
       id="path3135"
       sodipodi:cx="120"
       sodipodi:cy="287.35999"
       sodipodi:rx="30"
       sodipodi:ry="25"
       d="m 150,287.35999 a 30,25 0 1 1 -60,0 30,25 0 1 1 60,0 z"
       transform="matrix(0.0625,0,0,0.0625,370.80083,259.02132)" />
    <path
       sodipodi:type="arc"
       style="fill:#00ff00"
       id="path3139"
       sodipodi:cx="130"
       sodipodi:cy="297.35999"
       sodipodi:rx="20"
       sodipodi:ry="15"
       d="m 150,297.35999 a 20,15 0 1 1 -40,0 20,15 0 1 1 40,0 z"
       transform="matrix(0.0625,0,0,0.0625,370.17583,258.39632)" />
    <path
       style="fill:#008000"
       d="m 407.67583,281.04382 c -0.71758,2.30724 1.67593,5.10296 0.19271,4.64165 -1.48322,-0.4613 -2.10389,-2.70564 -1.38631,-5.01287 0.71758,-2.30724 2.50168,-3.80366 3.98491,-3.34235 1.48322,0.4613 -2.07372,1.40634 -2.79131,3.71357 z"
       id="path3141"
       inkscape:connector-curvature="0"
       sodipodi:nodetypes="sssss" />
    <path
       transform="matrix(0.0625,0,0,0.0625,403.30083,259.02132)"
       sodipodi:type="arc"
       style="fill:#008000"
       id="path3135-4"
       sodipodi:cx="120"
       sodipodi:cy="287.35999"
       sodipodi:rx="30"
       sodipodi:ry="25"
       d="m 150,287.35999 a 30,25 0 1 1 -60,0 30,25 0 1 1 60,0 z" />
    <path
       sodipodi:type="arc"
       style="fill:#00ff00"
       id="path3139-8"
       sodipodi:cx="130"
       sodipodi:cy="297.35999"
       sodipodi:rx="20"
       sodipodi:ry="15"
       d="m 150,297.35999 a 20,15 0 1 1 -40,0 20,15 0 1 1 40,0 z"
       transform="matrix(0.0625,0,0,0.0625,402.67583,258.39632)" />
    <path
       style="fill:#008000"
       d="m 384,339.3621 6.4753,3.78424 -8.46551,9.53075 -2.69804,-1.57677 z"
       id="rect3167"
       inkscape:connector-curvature="0"
       sodipodi:nodetypes="ccccc" />
    <path
       style="fill:#008000"
       d="m 397.05083,343.54382 7.5,0 -2.5,12.5 -3.125,0 z"
       id="rect3167-8"
       inkscape:connector-curvature="0"
       sodipodi:nodetypes="ccccc" />
    <path
       style="fill:#008000"
       d="m 379.61045,350.86477 2.639,1.67372 -0.66949,1.0556 -9.50037,-6.02539 z"
       id="rect3188"
       inkscape:connector-curvature="0"
       sodipodi:nodetypes="ccccc" />
    <path
       style="fill:#008000"
       d="m 398.92583,356.04382 3.125,0 0,1.25001 -11.25,0 z"
       id="rect3188-2"
       inkscape:connector-curvature="0"
       sodipodi:nodetypes="ccccc" />
    <path
       style="fill:#008000"
       d="m 389,316.3621 c 1.06061,0.88401 -2.96953,1.61041 -8.16308,7.84149 -5.19356,6.23108 -9.58384,15.60725 -10.64445,14.72324 -1.06061,-0.88401 2.28981,-6.65193 7.48336,-12.88301 5.19356,-6.23108 10.26356,-10.56573 11.32417,-9.68172 z"
       id="path3213"
       inkscape:connector-curvature="0"
       sodipodi:nodetypes="sssss" />
    <path
       style="fill:#008000"
       d="m 401.38775,316.32733 c -1.06062,0.88401 2.96953,1.61041 8.16308,7.84149 5.19356,6.23108 9.58384,15.60726 10.64445,14.72325 1.06061,-0.88401 -2.2898,-6.65193 -7.48336,-12.88301 -5.19356,-6.23108 -10.26356,-10.56574 -11.32417,-9.68173 z"
       id="path3213-4"
       inkscape:connector-curvature="0"
       sodipodi:nodetypes="sssss" />
    <path
       style="fill:#ff0000"
       d="m 379.203,291.55033 8.72379,4.8883 -2.31255,1.56991 c -3.40302,0.95887 -3.40302,0.95887 -6.06341,-1.96472 z"
       id="rect3263"
       inkscape:connector-curvature="0"
       sodipodi:nodetypes="ccccc" />
    <path
       sodipodi:type="arc"
       style="fill:#000000"
       id="path3041"
       sodipodi:cx="145.71428"
       sodipodi:cy="170.93361"
       sodipodi:rx="54.285713"
       sodipodi:ry="52.857143"
       d="m 199.99999,170.93361 a 54.285713,52.857143 0 1 1 -108.571424,0 54.285713,52.857143 0 1 1 108.571424,0 z"
       transform="matrix(0.01644736,0,0,0.01520271,381.26136,293.44517)" />
    <path
       style="fill:#ff0000"
       d="m 411.86295,291.55033 -8.72379,4.8883 2.31255,1.56991 c 3.40302,0.95887 3.40302,0.95887 6.06341,-1.96472 z"
       id="rect3263-5"
       inkscape:connector-curvature="0"
       sodipodi:nodetypes="ccccc" />
    <path
       sodipodi:type="arc"
       style="fill:#000000"
       id="path3041-5"
       sodipodi:cx="145.71428"
       sodipodi:cy="170.93361"
       sodipodi:rx="54.285713"
       sodipodi:ry="52.857143"
       d="m 199.99999,170.93361 a 54.285713,52.857143 0 1 1 -108.571424,0 54.285713,52.857143 0 1 1 108.571424,0 z"
       transform="matrix(-0.01644736,0,0,0.01520271,409.80459,293.44517)" />
    <path
       style="fill:#ff0000"
       d="m 398.30083,307.29382 1.25,0 -1.25,1.25 0,0 z"
       id="rect3287"
       inkscape:connector-curvature="0"
       sodipodi:nodetypes="ccccc" />
    <path
       style="fill:#ff0000"
       d="m 394.55083,307.29382 -1.25,0 1.25,1.25 0,0 z"
       id="rect3287-1"
       inkscape:connector-curvature="0"
       sodipodi:nodetypes="ccccc" />
  </g>
</svg>
