<?xml version="1.0" encoding="UTF-8" standalone="no"?>
<!-- Created with Inkscape (http://www.inkscape.org/) -->

<svg
   xmlns:dc="http://purl.org/dc/elements/1.1/"
   xmlns:cc="http://creativecommons.org/ns#"
   xmlns:rdf="http://www.w3.org/1999/02/22-rdf-syntax-ns#"
   xmlns:svg="http://www.w3.org/2000/svg"
   xmlns="http://www.w3.org/2000/svg"
   xmlns:sodipodi="http://sodipodi.sourceforge.net/DTD/sodipodi-0.dtd"
   xmlns:inkscape="http://www.inkscape.org/namespaces/inkscape"
   width="50.394768"
   height="81.875008"
   id="svg2"
   version="1.1"
   inkscape:version="0.48.5 r10040"
   sodipodi:docname="alienFscaled.svg">
  <defs
     id="defs4" />
  <sodipodi:namedview
     id="base"
     pagecolor="#ffffff"
     bordercolor="#666666"
     borderopacity="1.0"
     inkscape:pageopacity="0.0"
     inkscape:pageshadow="2"
     inkscape:zoom="1"
     inkscape:cx="-55.512504"
     inkscape:cy="-39.012633"
     inkscape:document-units="px"
     inkscape:current-layer="layer1"
     showgrid="true"
     inkscape:window-width="1920"
     inkscape:window-height="1017"
     inkscape:window-x="-8"
     inkscape:window-y="-8"
     inkscape:window-maximized="1"
     showborder="true"
     fit-margin-top="0"
     fit-margin-left="0"
     fit-margin-right="0"
     fit-margin-bottom="0">
    <inkscape:grid
       type="xygrid"
       id="grid3108"
       empspacing="5"
       visible="true"
       enabled="true"
       snapvisiblegridlinesonly="true"
       originx="-365.09129px"
       originy="-694.06242px" />
  </sodipodi:namedview>
  <metadata
     id="metadata7">
    <rdf:RDF>
      <cc:Work
         rdf:about="">
        <dc:format>image/svg+xml</dc:format>
        <dc:type
           rdf:resource="http://purl.org/dc/dcmitype/StillImage" />
        <dc:title></dc:title>
      </cc:Work>
    </rdf:RDF>
  </metadata>
  <g
     inkscape:label="Layer 1"
     inkscape:groupmode="layer"
     id="layer1"
     transform="translate(-365.09129,-276.42467)">
    <path
       sodipodi:type="arc"
       style="fill:#008000"
       id="path3031"
       sodipodi:cx="411.42856"
       sodipodi:cy="458.07648"
       sodipodi:rx="260"
       sodipodi:ry="282.85715"
       d="m 671.42856,458.07648 c 0,156.21769 -116.40597,282.85714 -260,282.85714 -143.59404,0 -260,-126.63945 -260,-282.85714 0,-156.21769 116.40596,-282.85715 260,-282.85715 143.59403,0 260,126.63946 260,282.85715 z"
       transform="matrix(0.0625,0,0,0.0625,364.37778,267.79489)" />
    <path
       sodipodi:type="arc"
       style="fill:#008000"
       id="path3033"
       sodipodi:cx="138.57143"
       sodipodi:cy="166.6479"
       sodipodi:rx="101.42857"
       sodipodi:ry="105.71429"
       d="m 240,166.6479 c 0,58.38439 -45.41112,105.71429 -101.42857,105.71429 -56.017458,0 -101.428577,-47.3299 -101.428577,-105.71429 0,-58.38438 45.411119,-105.714283 101.428577,-105.714283 C 194.58888,60.933617 240,108.26352 240,166.6479 z"
       transform="matrix(0.0625,0,0,0.0625,369.73492,285.11632)" />
    <path
       sodipodi:type="arc"
       style="fill:#ffffff"
       id="path3037"
       sodipodi:cx="171.42857"
       sodipodi:cy="189.50504"
       sodipodi:rx="88.571426"
       sodipodi:ry="91.428574"
       d="m 260,189.50504 c 0,50.4946 -39.65478,91.42857 -88.57143,91.42857 -48.91664,0 -88.571423,-40.93397 -88.571423,-91.42857 0,-50.49461 39.654783,-91.428578 88.571423,-91.428578 48.91665,0 88.57143,40.933968 88.57143,91.428578 z"
       transform="matrix(0.0625,0,0,0.0625,367.77063,283.68775)" />
    <path
       sodipodi:type="arc"
       style="fill:#008000"
       id="path3033-7"
       sodipodi:cx="138.57143"
       sodipodi:cy="166.6479"
       sodipodi:rx="101.42857"
       sodipodi:ry="105.71429"
       d="m 240,166.6479 c 0,58.38439 -45.41112,105.71429 -101.42857,105.71429 -56.017458,0 -101.428577,-47.3299 -101.428577,-105.71429 0,-58.38438 45.411119,-105.714283 101.428577,-105.714283 C 194.58888,60.933617 240,108.26352 240,166.6479 z"
       transform="matrix(0.0625,0,0,0.0625,393.39563,284.93775)" />
    <path
       sodipodi:type="arc"
       style="fill:#ffffff"
       id="path3037-4"
       sodipodi:cx="171.42857"
       sodipodi:cy="189.50504"
       sodipodi:rx="88.571426"
       sodipodi:ry="91.428574"
       d="m 260,189.50504 c 0,50.4946 -39.65478,91.42857 -88.57143,91.42857 -48.91664,0 -88.571423,-40.93397 -88.571423,-91.42857 0,-50.49461 39.654783,-91.428578 88.571423,-91.428578 48.91665,0 88.57143,40.933968 88.57143,91.428578 z"
       transform="matrix(0.0625,0,0,0.0625,391.43135,283.50918)" />
    <path
       sodipodi:type="arc"
       style="fill:#00ff00"
       id="path3085"
       sodipodi:cx="405.71429"
       sodipodi:cy="666.64789"
       sodipodi:rx="120"
       sodipodi:ry="37.142857"
       d="m 525.71429,666.64789 c 0,20.51343 -53.72583,37.14285 -120,37.14285 -66.27417,0 -120,-16.62942 -120,-37.14285 0,-20.51344 53.72583,-37.14286 120,-37.14286 66.27417,0 120,16.62942 120,37.14286 z"
       transform="matrix(0.0625,0,0,0.0625,365.98492,267.79489)" />
    <path
       sodipodi:type="arc"
       style="fill:#ffffff"
       id="path3093"
       sodipodi:cx="407.14285"
       sodipodi:cy="669.50507"
       sodipodi:rx="87.14286"
       sodipodi:ry="20"
       d="m 494.28571,669.50507 c 0,11.04569 -39.01518,20 -87.14286,20 -48.12767,0 -87.14286,-8.95431 -87.14286,-20 0,-11.0457 39.01519,-20 87.14286,-20 48.12768,0 87.14286,8.9543 87.14286,20 z"
       transform="matrix(0.0625,0,0,0.0625,365.98492,267.79489)" />
    <path
       sodipodi:type="arc"
       style="fill:#ffffff"
       id="path3095"
       sodipodi:cx="358.57144"
       sodipodi:cy="530.93359"
       sodipodi:rx="12.857142"
       sodipodi:ry="7.1428571"
       d="m 371.42858,530.93359 c 0,3.94489 -5.75633,7.14286 -12.85714,7.14286 -7.1008,0 -12.85714,-3.19797 -12.85714,-7.14286 0,-3.94489 5.75634,-7.14285 12.85714,-7.14285 7.10081,0 12.85714,3.19796 12.85714,7.14285 z"
       transform="matrix(0.0625,0,0,0.0625,365.98492,267.79489)" />
    <path
       sodipodi:type="arc"
       style="fill:#ffffff"
       id="path3097"
       sodipodi:cx="421.42856"
       sodipodi:cy="528.07648"
       sodipodi:rx="12.857142"
       sodipodi:ry="7.1428571"
       d="m 434.2857,528.07648 c 0,3.94489 -5.75634,7.14285 -12.85714,7.14285 -7.10081,0 -12.85714,-3.19796 -12.85714,-7.14285 0,-3.94489 5.75633,-7.14286 12.85714,-7.14286 7.1008,0 12.85714,3.19797 12.85714,7.14286 z"
       transform="matrix(0.0625,0,0,0.0625,365.09206,267.97347)" />
    <path
       style="fill:#008000"
       d="m 387.05635,313.38896 5.89285,0 -1.07142,3.21428 -3.03572,0.17857 z"
       id="rect3099"
       inkscape:connector-curvature="0"
       sodipodi:nodetypes="ccccc" />
    <path
       style="fill:#008000"
       d="m 403.39563,335.79967 c 0,11.73605 -5.87626,8.75 -13.125,8.75 -7.24873,0 -13.125,2.98605 -13.125,-8.75 0,-11.73605 5.87627,-21.25 13.125,-21.25 7.24874,0 13.125,9.51395 13.125,21.25 z"
       id="path3127"
       inkscape:connector-curvature="0"
       sodipodi:nodetypes="sssss" />
    <path
       style="fill:#008000"
       d="m 377.67504,281.57026 c 1.1253,2.70963 1.00384,5.33551 -0.27128,5.86507 -1.27513,0.52955 0.24217,-2.67602 -0.88313,-5.38566 -1.12529,-2.70963 -4.46706,-3.89726 -3.19194,-4.42681 1.27513,-0.52955 3.22105,1.23776 4.34635,3.9474 z"
       id="path3132"
       inkscape:connector-curvature="0"
       sodipodi:nodetypes="sssss" />
    <path
       sodipodi:type="arc"
       style="fill:#008000"
       id="path3135"
       sodipodi:cx="120"
       sodipodi:cy="287.35999"
       sodipodi:rx="30"
       sodipodi:ry="25"
       d="m 150,287.35999 c 0,13.80711 -13.43146,25 -30,25 -16.56854,0 -30,-11.19289 -30,-25 0,-13.80712 13.43146,-25 30,-25 16.56854,0 30,11.19288 30,25 z"
       transform="matrix(0.0625,0,0,0.0625,365.89563,260.02717)" />
    <path
       sodipodi:type="arc"
       style="fill:#00ff00"
       id="path3139"
       sodipodi:cx="130"
       sodipodi:cy="297.35999"
       sodipodi:rx="20"
       sodipodi:ry="15"
       d="m 150,297.35999 c 0,8.28427 -8.95431,15 -20,15 -11.04569,0 -20,-6.71573 -20,-15 0,-8.28428 8.95431,-15 20,-15 11.04569,0 20,6.71572 20,15 z"
       transform="matrix(0.0625,0,0,0.0625,365.27063,259.40217)" />
    <path
       style="fill:#008000"
       d="m 402.77063,282.04967 c -0.71758,2.30724 1.67593,5.10296 0.19271,4.64165 -1.48322,-0.4613 -2.10389,-2.70564 -1.38631,-5.01287 0.71758,-2.30724 2.50168,-3.80366 3.98491,-3.34235 1.48322,0.4613 -2.07372,1.40634 -2.79131,3.71357 z"
       id="path3141"
       inkscape:connector-curvature="0"
       sodipodi:nodetypes="sssss" />
    <path
       transform="matrix(0.0625,0,0,0.0625,398.39563,260.02717)"
       sodipodi:type="arc"
       style="fill:#008000"
       id="path3135-4"
       sodipodi:cx="120"
       sodipodi:cy="287.35999"
       sodipodi:rx="30"
       sodipodi:ry="25"
       d="m 150,287.35999 c 0,13.80711 -13.43146,25 -30,25 -16.56854,0 -30,-11.19289 -30,-25 0,-13.80712 13.43146,-25 30,-25 16.56854,0 30,11.19288 30,25 z" />
    <path
       sodipodi:type="arc"
       style="fill:#00ff00"
       id="path3139-8"
       sodipodi:cx="130"
       sodipodi:cy="297.35999"
       sodipodi:rx="20"
       sodipodi:ry="15"
       d="m 150,297.35999 c 0,8.28427 -8.95431,15 -20,15 -11.04569,0 -20,-6.71573 -20,-15 0,-8.28428 8.95431,-15 20,-15 11.04569,0 20,6.71572 20,15 z"
       transform="matrix(0.0625,0,0,0.0625,397.77063,259.40217)" />
    <path
       style="fill:#008000"
       d="m 380.89563,344.54967 7.5,0 -2.5,12.5 -3.125,0 z"
       id="rect3167"
       inkscape:connector-curvature="0"
       sodipodi:nodetypes="ccccc" />
    <path
       style="fill:#008000"
       d="m 392.14563,344.54967 7.5,0 -2.5,12.5 -3.125,0 z"
       id="rect3167-8"
       inkscape:connector-curvature="0"
       sodipodi:nodetypes="ccccc" />
    <path
       style="fill:#008000"
       d="m 382.77063,357.04967 3.125,0 0,1.25 -11.25,0 z"
       id="rect3188"
       inkscape:connector-curvature="0"
       sodipodi:nodetypes="ccccc" />
    <path
       style="fill:#008000"
       d="m 394.02063,357.04967 3.125,0 0,1.25001 -11.25,0 z"
       id="rect3188-2"
       inkscape:connector-curvature="0"
       sodipodi:nodetypes="ccccc" />
    <path
       style="fill:#008000"
       d="m 384.0948,317.36795 c 1.06061,0.88401 -2.96953,1.61041 -8.16308,7.84149 -5.19356,6.23108 -9.58384,15.60725 -10.64445,14.72324 -1.06061,-0.88401 2.28981,-6.65193 7.48336,-12.88301 5.19356,-6.23108 10.26356,-10.56573 11.32417,-9.68172 z"
       id="path3213"
       inkscape:connector-curvature="0"
       sodipodi:nodetypes="sssss" />
    <path
       style="fill:#008000"
       d="m 396.48255,317.33318 c -1.06062,0.88401 2.96953,1.61041 8.16308,7.84149 5.19356,6.23108 9.58384,15.60726 10.64445,14.72325 1.06061,-0.88401 -2.2898,-6.65193 -7.48336,-12.88301 -5.19356,-6.23108 -10.26356,-10.56574 -11.32417,-9.68173 z"
       id="path3213-4"
       inkscape:connector-curvature="0"
       sodipodi:nodetypes="sssss" />
    <path
       style="fill:#ff0000"
       d="m 374.2978,292.55618 8.72379,4.8883 -2.31255,1.56991 c -3.40302,0.95887 -3.40302,0.95887 -6.06341,-1.96472 z"
       id="rect3263"
       inkscape:connector-curvature="0"
       sodipodi:nodetypes="ccccc" />
    <path
       sodipodi:type="arc"
       style="fill:#000000"
       id="path3041"
       sodipodi:cx="145.71428"
       sodipodi:cy="170.93361"
       sodipodi:rx="54.285713"
       sodipodi:ry="52.857143"
       d="m 199.99999,170.93361 c 0,29.19219 -24.30454,52.85714 -54.28571,52.85714 -29.98117,0 -54.285714,-23.66495 -54.285714,-52.85714 0,-29.1922 24.304544,-52.85714 54.285714,-52.85714 29.98117,0 54.28571,23.66494 54.28571,52.85714 z"
       transform="matrix(0.01644736,0,0,0.01520271,376.35616,294.45102)" />
    <path
       style="fill:#ff0000"
       d="m 406.95775,292.55618 -8.72379,4.8883 2.31255,1.56991 c 3.40302,0.95887 3.40302,0.95887 6.06341,-1.96472 z"
       id="rect3263-5"
       inkscape:connector-curvature="0"
       sodipodi:nodetypes="ccccc" />
    <path
       sodipodi:type="arc"
       style="fill:#000000"
       id="path3041-5"
       sodipodi:cx="145.71428"
       sodipodi:cy="170.93361"
       sodipodi:rx="54.285713"
       sodipodi:ry="52.857143"
       d="m 199.99999,170.93361 c 0,29.19219 -24.30454,52.85714 -54.28571,52.85714 -29.98117,0 -54.285714,-23.66495 -54.285714,-52.85714 0,-29.1922 24.304544,-52.85714 54.285714,-52.85714 29.98117,0 54.28571,23.66494 54.28571,52.85714 z"
       transform="matrix(-0.01644736,0,0,0.01520271,404.89939,294.45102)" />
    <path
       style="fill:#ff0000"
       d="m 393.39563,308.29967 1.25,0 -1.25,1.25 0,0 z"
       id="rect3287"
       inkscape:connector-curvature="0"
       sodipodi:nodetypes="ccccc" />
    <path
       style="fill:#ff0000"
       d="m 389.64563,308.29967 -1.25,0 1.25,1.25 0,0 z"
       id="rect3287-1"
       inkscape:connector-curvature="0"
       sodipodi:nodetypes="ccccc" />
  </g>
</svg>
