<?xml version="1.0" encoding="UTF-8" standalone="no"?>
<!-- Created with Inkscape (http://www.inkscape.org/) -->

<svg
   xmlns:dc="http://purl.org/dc/elements/1.1/"
   xmlns:cc="http://creativecommons.org/ns#"
   xmlns:rdf="http://www.w3.org/1999/02/22-rdf-syntax-ns#"
   xmlns:svg="http://www.w3.org/2000/svg"
   xmlns="http://www.w3.org/2000/svg"
   xmlns:sodipodi="http://sodipodi.sourceforge.net/DTD/sodipodi-0.dtd"
   xmlns:inkscape="http://www.inkscape.org/namespaces/inkscape"
   width="260"
   height="40"
   id="svg2"
   version="1.1"
   inkscape:version="0.48.5 r10040"
   sodipodi:docname="tetrispiece2.svg"
   inkscape:export-filename="C:\Users\Alex\Desktop\inkscapestuff\Tetris\tetrispiece2.png"
   inkscape:export-xdpi="90"
   inkscape:export-ydpi="90">
  <defs
     id="defs4" />
  <sodipodi:namedview
     id="base"
     pagecolor="#ffffff"
     bordercolor="#666666"
     borderopacity="1.0"
     inkscape:pageopacity="0.0"
     inkscape:pageshadow="2"
     inkscape:zoom="2.8"
     inkscape:cx="6.3853442"
     inkscape:cy="11.94002"
     inkscape:document-units="px"
     inkscape:current-layer="layer1"
     showgrid="true"
     gridtolerance="12"
     objecttolerance="1"
     guidetolerance="1"
     inkscape:window-width="1920"
     inkscape:window-height="1017"
     inkscape:window-x="-8"
     inkscape:window-y="-8"
     inkscape:window-maximized="1">
    <inkscape:grid
       type="xygrid"
       id="grid2985"
       empspacing="5"
       visible="true"
       enabled="true"
       snapvisiblegridlinesonly="true"
       spacingx="10px"
       spacingy="10px" />
  </sodipodi:namedview>
  <metadata
     id="metadata7">
    <rdf:RDF>
      <cc:Work
         rdf:about="">
        <dc:format>image/svg+xml</dc:format>
        <dc:type
           rdf:resource="http://purl.org/dc/dcmitype/StillImage" />
        <dc:title></dc:title>
      </cc:Work>
    </rdf:RDF>
  </metadata>
  <g
     inkscape:label="Layer 1"
     inkscape:groupmode="layer"
     id="layer1"
     transform="translate(0,-1012.3622)">
    <path
       style="fill:#ff00ff;fill-opacity:1;stroke:none"
       d="m 80,1012.3622 0,10 0,20 10,0 0,-20 10,0 0,-10 -20,0 z"
       id="rect2998"
       inkscape:connector-curvature="0" />
    <path
       style="fill:#ff00ff;fill-opacity:1;stroke:none"
       d="m 130,1012.3622 0,10 10,0 0,20 -10,0 0,-10 -10,0 0,-20 10,0 z"
       id="rect3010"
       inkscape:connector-curvature="0" />
    <rect
       style="fill:#0000ff;fill-opacity:1;stroke:none"
       id="rect2987-1"
       width="19.821428"
       height="19.999998"
       x="240.17857"
       y="802.36218" />
    <path
       inkscape:connector-curvature="0"
       style="fill:#0000ff;fill-opacity:1;stroke:none"
       d="m 210,1012.3622 0,20 -10,0 0,10 20,0 0,-10 0,-20 -10,0 z"
       id="rect3002-9" />
    <path
       inkscape:connector-curvature="0"
       style="fill:#00ff00;fill-opacity:1;stroke:none"
       d="m 40,1012.3622 0,30 10,0 0,-10 10,0 0,-10 -10,0 0,-10 -10,0 z"
       id="rect2991-7" />
    <path
       style="fill:#ffff00;fill-opacity:1;stroke:none"
       d="m 170,1012.3622 0,10 -10,0 0,20 10,0 0,-10 10,0 0,-20 -10,0 z"
       id="rect3006-7"
       inkscape:connector-curvature="0" />
    <rect
       style="fill:#ff0000;fill-opacity:1;stroke:none"
       id="rect2989-9"
       width="10"
       height="40"
       x="0"
       y="1012.3622" />
    <rect
       style="fill:#00ff00;fill-opacity:1;stroke:none"
       id="rect3203"
       width="20"
       height="20"
       x="240"
       y="1012.3622" />
  </g>
</svg>
