<?xml version="1.0" encoding="UTF-8" standalone="no"?>
<!-- Created with Inkscape (http://www.inkscape.org/) -->

<svg
   xmlns:dc="http://purl.org/dc/elements/1.1/"
   xmlns:cc="http://creativecommons.org/ns#"
   xmlns:rdf="http://www.w3.org/1999/02/22-rdf-syntax-ns#"
   xmlns:svg="http://www.w3.org/2000/svg"
   xmlns="http://www.w3.org/2000/svg"
   xmlns:xlink="http://www.w3.org/1999/xlink"
   xmlns:sodipodi="http://sodipodi.sourceforge.net/DTD/sodipodi-0.dtd"
   xmlns:inkscape="http://www.inkscape.org/namespaces/inkscape"
   width="744.09448819"
   height="1052.3622047"
   id="svg3084"
   version="1.1"
   inkscape:version="0.48.5 r10040"
   sodipodi:docname="gradient1.svg">
  <defs
     id="defs3086">
    <linearGradient
       inkscape:collect="always"
       id="linearGradient3071">
      <stop
         style="stop-color:#ffffff;stop-opacity:1"
         offset="0"
         id="stop3073" />
      <stop
         style="stop-color:#ffcc00;stop-opacity:0.90196079"
         offset="1"
         id="stop3075" />
    </linearGradient>
    <radialGradient
       inkscape:collect="always"
       xlink:href="#linearGradient3071"
       id="radialGradient3077"
       cx="171.72594"
       cy="261.19244"
       fx="171.72594"
       fy="261.19244"
       r="85.245103"
       gradientTransform="matrix(-0.4028993,-1.7491554e-8,1.0074308e-7,-0.7373695,240.91417,463.09946)"
       gradientUnits="userSpaceOnUse" />
    <radialGradient
       inkscape:collect="always"
       xlink:href="#linearGradient3071"
       id="radialGradient3082"
       gradientUnits="userSpaceOnUse"
       gradientTransform="matrix(-0.4028993,-1.7491554e-8,1.0074308e-7,-0.7373695,240.91417,463.09946)"
       cx="171.72594"
       cy="261.19244"
       fx="171.72594"
       fy="261.19244"
       r="85.245103" />
    <radialGradient
       inkscape:collect="always"
       xlink:href="#linearGradient3071"
       id="radialGradient3084"
       gradientUnits="userSpaceOnUse"
       gradientTransform="matrix(-0.4028993,-1.7491554e-8,1.0074308e-7,-0.7373695,240.91417,463.09946)"
       cx="171.72594"
       cy="261.19244"
       fx="171.72594"
       fy="261.19244"
       r="85.245103" />
    <radialGradient
       inkscape:collect="always"
       xlink:href="#linearGradient3071"
       id="radialGradient3086"
       gradientUnits="userSpaceOnUse"
       gradientTransform="matrix(-0.4028993,-1.7491554e-8,1.0074308e-7,-0.7373695,240.91417,463.09946)"
       cx="171.72594"
       cy="261.19244"
       fx="171.72594"
       fy="261.19244"
       r="85.245103" />
  </defs>
  <sodipodi:namedview
     id="base"
     pagecolor="#ffffff"
     bordercolor="#666666"
     borderopacity="1.0"
     inkscape:pageopacity="0.0"
     inkscape:pageshadow="2"
     inkscape:zoom="0.7"
     inkscape:cx="198.73721"
     inkscape:cy="694.70965"
     inkscape:document-units="px"
     inkscape:current-layer="layer1"
     showgrid="false"
     inkscape:window-width="665"
     inkscape:window-height="751"
     inkscape:window-x="840"
     inkscape:window-y="16"
     inkscape:window-maximized="0" />
  <metadata
     id="metadata3089">
    <rdf:RDF>
      <cc:Work
         rdf:about="">
        <dc:format>image/svg+xml</dc:format>
        <dc:type
           rdf:resource="http://purl.org/dc/dcmitype/StillImage" />
        <dc:title />
      </cc:Work>
    </rdf:RDF>
  </metadata>
  <g
     inkscape:label="Layer 1"
     inkscape:groupmode="layer"
     id="layer1">
    <path
       sodipodi:type="arc"
       style="fill:#ffffff"
       id="path3001"
       sodipodi:cx="501.03564"
       sodipodi:cy="623.04736"
       sodipodi:rx="34.345188"
       sodipodi:ry="93.944183"
       d="m 535.38083,623.04736 a 34.345188,93.944183 0 1 1 -68.69037,0 34.345188,93.944183 0 1 1 68.69037,0 z" />
    <path
       transform="translate(70.490207,-1.428563)"
       sodipodi:type="arc"
       style="fill:url(#radialGradient3082);fill-opacity:1"
       id="path3092-1"
       sodipodi:cx="138.57143"
       sodipodi:cy="296.64789"
       sodipodi:rx="50"
       sodipodi:ry="61.42857"
       d="m 188.57143,296.64789 a 50,61.42857 0 1 1 -100.000004,0 50,61.42857 0 1 1 100.000004,0 z" />
    <path
       sodipodi:type="arc"
       style="fill:url(#radialGradient3084);fill-opacity:1"
       id="path3092"
       sodipodi:cx="138.57143"
       sodipodi:cy="296.64789"
       sodipodi:rx="50"
       sodipodi:ry="61.42857"
       d="m 188.57143,296.64789 a 50,61.42857 0 1 1 -100.000004,0 50,61.42857 0 1 1 100.000004,0 z" />
    <path
       sodipodi:nodetypes="csssc"
       inkscape:connector-curvature="0"
       id="path3092-1-7"
       d="m 258.99134,293.31921 c 0,33.92606 -22.38577,61.42857 -50,61.42857 -27.61424,0 -50,-27.50251 -50,-61.42857 0,-33.92606 22.38576,41.60699 50,41.60699 27.61423,0 50,-75.53305 50,-41.60699 z"
       style="opacity:0.25;fill:#800080" />
    <path
       sodipodi:nodetypes="sscss"
       inkscape:connector-curvature="0"
       id="path3092-12"
       d="m 188.50113,294.74777 c 0,33.92606 -22.38577,61.42857 -50,61.42857 -27.61424,0 -50,-27.50251 -50,-61.42857 0,-33.92606 16.32484,35.54608 43.93908,35.54608 27.61423,0 56.06092,-69.47214 56.06092,-35.54608 z"
       style="opacity:0.25;fill:#800080" />
    <path
       transform="translate(31.428574,1.4285757)"
       sodipodi:type="arc"
       style="fill:url(#radialGradient3086);fill-opacity:1"
       id="path3092-7"
       sodipodi:cx="138.57143"
       sodipodi:cy="296.64789"
       sodipodi:rx="50"
       sodipodi:ry="61.42857"
       d="m 188.57143,296.64789 a 50,61.42857 0 1 1 -100.000004,0 50,61.42857 0 1 1 100.000004,0 z" />
    <path
       sodipodi:nodetypes="cssscsc"
       inkscape:connector-curvature="0"
       id="path3092-7-6"
       d="m 221.35828,296.17635 c 0,0 2.48478,23.94344 -6.56344,39.80566 -9.04822,15.86222 -29.62944,23.64322 -43.43656,23.64322 -13.80712,0 -34.38834,-9.80131 -43.43657,-25.66353 -9.04822,-15.86222 -6.56344,-37.78535 -6.56344,-37.78535 0,0 22.38577,31.50546 50.00001,31.50546 27.61423,0 50,-31.50546 50,-31.50546 z"
       style="opacity:0.25;fill:#800080" />
    <path
       style="opacity:0.2;fill:#800080;fill-opacity:0.90196078"
       d="m 158.44019,284.51207 c 0,14.38535 -6.07516,19.53523 -17.65203,19.53523 -11.57688,0 -18.38499,0.22203 -18.38499,-14.16332 0,-7.19268 2.34955,-12.42604 7.24614,-17.13961 4.89658,-4.71356 10.86668,-14.27928 16.65511,-14.27928 11.57688,0 12.13577,11.66163 12.13577,26.04698 z"
       id="path3096-0"
       inkscape:connector-curvature="0"
       sodipodi:nodetypes="ssssss" />
    <path
       style="opacity:0.4;fill:#ffff00;fill-opacity:0.90196078"
       d="m 158.44019,299.581 c 0,14.38535 -6.07516,19.53523 -17.65203,19.53523 -11.57688,0 -18.38499,0.22204 -18.38499,-14.16331 0,-7.19269 2.34955,-12.42604 7.24614,-17.13962 4.89658,-4.71356 10.86668,-14.27928 16.65511,-14.27928 11.57688,0 12.13577,11.66163 12.13577,26.04698 z"
       id="path3096-5"
       inkscape:connector-curvature="0"
       sodipodi:nodetypes="ssssss" />
    <path
       style="fill:#000000;fill-opacity:0.90196078"
       d="m 158.44018,294.99532 c 0,14.38535 -6.07515,19.53523 -17.65202,19.53523 -11.57688,0 -18.38499,0.22203 -18.38499,-14.16332 0,-7.19268 2.34955,-12.42603 7.24614,-17.13961 4.89658,-4.71356 10.86668,-14.27928 16.65511,-14.27928 11.57688,0 12.13576,11.66163 12.13576,26.04698 z"
       id="path3096"
       inkscape:connector-curvature="0"
       sodipodi:nodetypes="ssssss" />
    <path
       inkscape:connector-curvature="0"
       style="opacity:0.2;fill:#800080;fill-opacity:0.90196078"
       d="m 130.92187,324.45083 c -1.5195,0.0645 -2.34375,0.49572 -2.34375,1.53125 0,4.73386 18.55713,17.15625 41.4375,17.15625 22.88036,0 41.40625,-12.42239 41.40625,-17.15625 0,-2.14533 -4.22723,-1.71978 -10.84375,-0.65625 l 1.78125,6.9375 -18.21875,5.875 -2.59375,-10.03125 c -4.13301,0.43329 -8.48408,0.75 -12.96875,0.75 -2.61451,0 -5.14681,-0.11261 -7.59375,-0.28125 l -2.46875,9.5625 -18.25,-5.875 1.625,-6.25 c -4.78993,-0.87588 -8.76379,-1.65606 -10.96875,-1.5625 z"
       id="path3191-2" />
    <path
       inkscape:connector-curvature="0"
       style="opacity:0.2;fill:#ffff00;fill-opacity:0.90196078"
       d="m 130.92188,331.59369 c -1.5195,0.0645 -2.34375,0.49572 -2.34375,1.53125 0,4.73386 18.55713,17.15625 41.4375,17.15625 22.88036,0 41.40625,-12.42239 41.40625,-17.15625 0,-2.14533 -4.22723,-1.71978 -10.84375,-0.65625 l 1.78125,6.9375 -18.21875,5.875 -2.59375,-10.03125 c -4.13301,0.43329 -8.48408,0.75 -12.96875,0.75 -2.61451,0 -5.14681,-0.11261 -7.59375,-0.28125 l -2.46875,9.5625 -18.25,-5.875 1.625,-6.25 c -4.78993,-0.87588 -8.76379,-1.65606 -10.96875,-1.5625 z"
       id="path3191-4" />
    <path
       style="fill:#000000;fill-opacity:0.90196078"
       d="M 132.34375 327.96875 C 130.82425 328.03322 130 328.46447 130 329.5 C 130 334.23386 148.55713 346.65625 171.4375 346.65625 C 194.31786 346.65625 212.84375 334.23386 212.84375 329.5 C 212.84375 327.35467 208.61652 327.78022 202 328.84375 L 203.78125 335.78125 L 185.5625 341.65625 L 182.96875 331.625 C 178.83574 332.05829 174.48467 332.375 170 332.375 C 167.38549 332.375 164.85319 332.26239 162.40625 332.09375 L 159.9375 341.65625 L 141.6875 335.78125 L 143.3125 329.53125 C 138.52257 328.65537 134.54871 327.87519 132.34375 327.96875 z "
       id="path3191" />
    <path
       sodipodi:type="arc"
       style="fill:#ff0000;fill-opacity:0.90196078"
       id="path3228"
       sodipodi:cx="134.28572"
       sodipodi:cy="464.50504"
       sodipodi:rx="4.2857141"
       sodipodi:ry="9.2857141"
       d="m 138.57143,464.50504 a 4.2857141,9.2857141 0 1 1 -8.57142,0 4.2857141,9.2857141 0 1 1 8.57142,0 z"
       transform="translate(15.714285,-166.07143)" />
    <path
       style="opacity:0.2;fill:#800080;fill-opacity:0.90196078"
       d="m 180.55292,285.22635 c 0,14.38535 6.07516,19.53523 17.65203,19.53523 11.57688,0 18.38499,0.22203 18.38499,-14.16332 0,-7.19268 -2.34955,-12.42604 -7.24614,-17.13961 -4.89658,-4.71356 -10.86668,-14.27928 -16.65511,-14.27928 -11.57688,0 -12.13577,11.66163 -12.13577,26.04698 z"
       id="path3096-0-1"
       inkscape:connector-curvature="0"
       sodipodi:nodetypes="ssssss" />
    <path
       style="opacity:0.4;fill:#ffff00;fill-opacity:0.90196078"
       d="m 180.55292,300.29528 c 0,14.38535 6.07516,19.53523 17.65203,19.53523 11.57688,0 18.38499,0.22204 18.38499,-14.16331 0,-7.19269 -2.34955,-12.42604 -7.24614,-17.13962 -4.89658,-4.71356 -10.86668,-14.27928 -16.65511,-14.27928 -11.57688,0 -12.13577,11.66163 -12.13577,26.04698 z"
       id="path3096-5-4"
       inkscape:connector-curvature="0"
       sodipodi:nodetypes="ssssss" />
    <path
       style="fill:#000000;fill-opacity:0.90196078"
       d="m 180.55293,295.7096 c 0,14.38535 6.07515,19.53523 17.65202,19.53523 11.57688,0 18.38499,0.22203 18.38499,-14.16332 0,-7.19268 -2.34955,-12.42603 -7.24614,-17.13961 -4.89658,-4.71356 -10.86668,-14.27928 -16.65511,-14.27928 -11.57688,0 -12.13576,11.66163 -12.13576,26.04698 z"
       id="path3096-9"
       inkscape:connector-curvature="0"
       sodipodi:nodetypes="ssssss" />
    <path
       transform="translate(55.714283,-166.07143)"
       sodipodi:type="arc"
       style="fill:#ff0000;fill-opacity:0.90196078"
       id="path3228-6"
       sodipodi:cx="134.28572"
       sodipodi:cy="464.50504"
       sodipodi:rx="4.2857141"
       sodipodi:ry="9.2857141"
       d="m 138.57143,464.50504 a 4.2857141,9.2857141 0 1 1 -8.57142,0 4.2857141,9.2857141 0 1 1 8.57142,0 z" />
  </g>
</svg>
